<svg id="root" width="1618" height="806" style="left:0;top:0" viewBox="0 0 1618 806" preserveAspectRatio="xMinYMin" xmlns="http://www.w3.org/2000/svg" xmlns:xlink="http://www.w3.org/1999/xlink" xmlns:c="http://www.easyeda.com/" class="bw-chrome"><g id="g1" c_spicecmd="TRAN`1u`1m`0`{AC`dec`10`1Hz`1Meg`{DC`0``0`0`{TF```" xmlns="http://www.w3.org/2000/svg" c_spiceCmd="null" importFlag="0"><rect x="0" y="0" width="1618" height="806" stroke="#000000" stroke-width="1" id="gge5" fill="#000000"/><g c_partid="part_annotation" id="gge8" c_origin="20,30"><text x="20" y="30" stroke="none" text-anchor="start" fill="#EAA228" font-size="12pt">V(rmot_2)</text></g><rect x="70" y="50" width="1478" height="721" id="gge11" stroke="#EFEFEF" stroke-width="1" fill="#333333"/><g c_partid="part_annotation" id="gge14" c_origin="70,788"><text x="70" y="788" stroke="none" text-anchor="middle" fill="#EFEFEF" font-size="12pt">-200us</text></g><polyline points="281.1428571428571 50 281.1428571428571 771" stroke="#EFEFEF" stroke-width="1" stroke-dasharray="2,8" fill="none" id="gge17" class="px1"/><g c_partid="part_annotation" id="gge20" c_origin="281.1428571428571,788"><text x="281.1428571428571" y="788" stroke="none" text-anchor="middle" fill="#EFEFEF" font-size="12pt">0s</text></g><polyline points="492.2857142857143 50 492.2857142857143 771" stroke="#EFEFEF" stroke-width="1" stroke-dasharray="2,8" fill="none" id="gge23" class="px1"/><g c_partid="part_annotation" id="gge26" c_origin="492.2857142857143,788"><text x="492.2857142857143" y="788" stroke="none" text-anchor="middle" fill="#EFEFEF" font-size="12pt">200us</text></g><polyline points="703.4285714285714 50 703.4285714285714 771" stroke="#EFEFEF" stroke-width="1" stroke-dasharray="2,8" fill="none" id="gge29" class="px1"/><g c_partid="part_annotation" id="gge32" c_origin="703.4285714285714,788"><text x="703.4285714285714" y="788" stroke="none" text-anchor="middle" fill="#EFEFEF" font-size="12pt">400us</text></g><polyline points="914.5714285714286 50 914.5714285714286 771" stroke="#EFEFEF" stroke-width="1" stroke-dasharray="2,8" fill="none" id="gge35" class="px1"/><g c_partid="part_annotation" id="gge38" c_origin="914.5714285714286,788"><text x="914.5714285714286" y="788" stroke="none" text-anchor="middle" fill="#EFEFEF" font-size="12pt">600us</text></g><polyline points="1125.7142857142858 50 1125.7142857142858 771" stroke="#EFEFEF" stroke-width="1" stroke-dasharray="2,8" fill="none" id="gge41" class="px1"/><g c_partid="part_annotation" id="gge44" c_origin="1125.7142857142858,788"><text x="1125.7142857142858" y="788" stroke="none" text-anchor="middle" fill="#EFEFEF" font-size="12pt">800us</text></g><polyline points="1336.857142857143 50 1336.857142857143 771" stroke="#EFEFEF" stroke-width="1" stroke-dasharray="2,8" fill="none" id="gge47" class="px1"/><g c_partid="part_annotation" id="gge50" c_origin="1336.857142857143,788"><text x="1336.857142857143" y="788" stroke="none" text-anchor="middle" fill="#EFEFEF" font-size="12pt">1ms</text></g><polyline points="1548 50 1548 771" stroke="#EFEFEF" stroke-width="1" stroke-dasharray="2,8" fill="none" id="gge53" class="px1"/><g c_partid="part_annotation" id="gge56" c_origin="1548,788"><text x="1548" y="788" stroke="none" text-anchor="middle" fill="#EFEFEF" font-size="12pt">1.2ms</text></g><g c_partid="part_annotation" id="gge59" c_origin="65,50"><text x="65" y="50" stroke="none" text-anchor="end" fill="#EFEFEF" font-size="12pt">4.5V</text></g><polyline points="70 153 1548 153" stroke="#EFEFEF" stroke-width="1" stroke-dasharray="2,8" fill="none" id="gge62" class="px1"/><g c_partid="part_annotation" id="gge65" c_origin="65,153"><text x="65" y="153" stroke="none" text-anchor="end" fill="#EFEFEF" font-size="12pt">4V</text></g><polyline points="70 256 1548 256" stroke="#EFEFEF" stroke-width="1" stroke-dasharray="2,8" fill="none" id="gge68" class="px1"/><g c_partid="part_annotation" id="gge71" c_origin="65,256"><text x="65" y="256" stroke="none" text-anchor="end" fill="#EFEFEF" font-size="12pt">3.5V</text></g><polyline points="70 359 1548 359" stroke="#EFEFEF" stroke-width="1" stroke-dasharray="2,8" fill="none" id="gge74" class="px1"/><g c_partid="part_annotation" id="gge77" c_origin="65,359"><text x="65" y="359" stroke="none" text-anchor="end" fill="#EFEFEF" font-size="12pt">3V</text></g><polyline points="70 462 1548 462" stroke="#EFEFEF" stroke-width="1" stroke-dasharray="2,8" fill="none" id="gge80" class="px1"/><g c_partid="part_annotation" id="gge83" c_origin="65,462"><text x="65" y="462" stroke="none" text-anchor="end" fill="#EFEFEF" font-size="12pt">2.5V</text></g><polyline points="70 565 1548 565" stroke="#EFEFEF" stroke-width="1" stroke-dasharray="2,8" fill="none" id="gge86" class="px1"/><g c_partid="part_annotation" id="gge89" c_origin="65,565"><text x="65" y="565" stroke="none" text-anchor="end" fill="#EFEFEF" font-size="12pt">2V</text></g><polyline points="70 668 1548 668" stroke="#EFEFEF" stroke-width="1" stroke-dasharray="2,8" fill="none" id="gge92" class="px1"/><g c_partid="part_annotation" id="gge95" c_origin="65,668"><text x="65" y="668" stroke="none" text-anchor="end" fill="#EFEFEF" font-size="12pt">1.5V</text></g><polyline points="70 771 1548 771" stroke="#EFEFEF" stroke-width="1" stroke-dasharray="2,8" fill="none" id="gge98" class="px1"/><g c_partid="part_annotation" id="gge101" c_origin="65,771"><text x="65" y="771" stroke="none" text-anchor="end" fill="#EFEFEF" font-size="12pt">1V</text></g><polyline points="281.14285714 111.80000001 281.1428677 111.80000001 281.14287826 111.80000001 281.14289937 111.80000001 281.1429416 111.80000001 281.14302606 111.80000001 281.14319497 111.80000001 281.1435328 111.80000001 281.14420846 111.80000001 281.14555977 111.80000001 281.14603944 111.80000001 281.14699878 111.80000001 281.14733931 111.80000001 281.14749514 111.80000001 281.1475356 111.80000001 281.14755574 111.80000001 281.14756368 111.80000002 281.14756994 111.80000003 281.14757657 111.80000005 281.14758419 111.80000008 281.14759225 111.80000014 281.1476018 111.80000025 281.1476125 111.80000044 281.1476252 111.80000081 281.14763968 111.80000145 281.14765678 111.80000265 281.14767648 111.8000048 281.14769964 111.80000877 281.14772645 111.80001598 281.14775786 111.8000292 281.14779428 111.80005327 281.14783675 111.80009733 281.14788587 111.80017746 281.1479427 111.80032348 281.14800787 111.80058777 281.14808228 111.80106538 281.14816639 111.80192229 281.14826088 111.80345628 281.14836573 111.8060542 281.14842141 111.80772737 281.14848827 111.80975788 281.14854111 111.81135812 281.14860197 111.81320446 281.14868705 111.81578366 281.14879562 111.81907623 281.14898955 111.82495613 281.14930641 111.83456428 281.14988365 111.8520665 281.15098691 111.88551858 281.15134841 111.89647927 281.15207143 111.91840055 281.15341429 111.95911313 281.15354857 111.96318432 281.15381714 111.97132662 281.15435429 111.98761098 281.15542857 112.02017877 281.15757715 112.08531063 281.16187429 112.21555947 281.17046858 112.47599764 281.18765717 112.99663606 281.22203434 114.03696186 281.29078867 116.11381517 281.42829735 120.25237471 281.7033147 128.46927285 282.2533494 144.66509183 283.30906369 174.88229555 284.36477797 203.98952715 285.42049226 232.02755462 286.47620654 259.03564911 287.53192083 285.0516395 288.58763511 310.11196567 289.6433494 334.25172918 290.69906369 357.5047427 291.75477797 379.90357701 292.81049226 401.47960694 293.86620654 422.26305492 294.92192083 442.2830336 295.97763511 461.56758633 297.0333494 480.14372666 298.08906369 498.03747592 299.14477797 515.27389987 300.20049226 531.87714357 301.25620654 547.87046541 302.31192083 563.27626943 303.36763511 578.11613691 304.4233494 592.4108564 305.47906369 606.180453 306.53477797 619.4442162 306.54533511 619.57434764 306.5664494 619.83446447 306.60867797 620.35411451 306.69313511 621.39108446 306.8620494 623.45573859 307.19987797 627.54818012 307.21043511 627.67527938 307.2315494 627.92933526 307.27377797 628.43687698 307.35823511 629.44968459 307.37735714 629.67857457 307.4156012 630.1358894 307.46978331 630.78272796 307.48034046 630.90861698 307.50145474 631.16025373 307.50404286 631.19108553 307.50921909 631.25274065 307.51957155 631.37601694 307.5255665 631.44738368 307.53428152 631.55110431 307.53571429 631.56815309 307.53857981 631.60224806 307.54054037 631.62557343 307.54235031 631.64710535 307.54265156 631.65068899 307.54325405 631.65785614 307.54445903 631.67218999 307.54627143 631.69374824 307.54645267 631.69590366 307.54681515 631.70021376 307.54754011 631.70882885 307.54899003 631.72602707 307.54971853 631.7346438 307.55117555 631.75166898 307.5515691 631.75598358 307.55184982 631.7577303 307.55208288 631.7567631 307.55219727 631.75524373 307.55226601 631.75402703 307.55230014 631.75334911 307.5523175 631.75298926 307.55233891 631.75253995 307.55235518 631.75219741 307.5523732 631.75181817 307.55239656 631.75132658 307.55244328 631.75034359 307.55248645 631.74943534 307.5525546 631.74800168 307.55268428 631.74527369 307.55292946 631.74011582 307.55341983 631.7298002 307.55440057 631.70916952 307.55486709 631.69935611 307.55580014 631.67972979 307.55682857 631.65809763 307.55693142 631.65593447 307.5571371 631.65160815 307.55754848 631.64295561 307.55837123 631.62565091 307.56001672 631.59104306 307.56330772 631.52183351 307.56988971 631.38343903 307.5830537 631.10674852 307.60938167 630.55376104 307.6620376 629.44935848 307.76734948 627.24682826 307.97797324 622.86675056 308.39922074 614.20559977 309.24171576 597.27202822 310.29743005 576.76574796 311.35314433 557.02619102 312.40885862 538.02518038 313.4645729 519.73557936 314.52028719 502.1312537 315.57600148 485.18703454 316.63171576 468.87868331 317.68743005 453.18285736 318.74314433 438.07707745 319.79885862 423.53969588 320.8545729 409.5498664 321.91028719 396.08751457 322.96600148 383.13331001 324.02171576 370.66863887 325.07743005 358.67557817 326.13314433 347.13687021 327.18885862 336.03589899 328.2445729 325.35666636 329.30028719 315.08377034 330.35600148 305.20238296 331.41171576 295.69823035 332.46743005 286.55757215 332.87285714 283.1414153 333.11771724 281.10293634 333.43885124 278.45734209 333.44940838 278.37090385 333.47052267 278.19812885 333.51275124 277.85298435 333.59720838 277.16431437 333.76612267 275.79342659 333.77667981 275.70803128 333.7977941 275.53734095 333.84002267 275.19636119 333.84411429 275.16335131 333.85229752 275.09734659 333.86866399 274.96539726 333.89583848 274.74648872 333.90639563 274.66150347 333.90745714 274.65296009 333.90958017 274.63587434 333.91382623 274.60170688 333.92007931 274.55139906 333.92857143 274.48309615 333.92942064 274.47626715 333.93111906 274.46260958 333.93197167 274.45575385 333.93248282 274.45164379 333.93313854 274.44637142 333.93348061 274.44365314 333.93365811 274.44232566 333.93374368 274.44175956 333.93380681 274.44141252 333.93386661 274.44117376 333.93397168 274.44109823 333.93413663 274.44252374 333.93419689 274.4436899 333.93423986 274.44471459 333.93429689 274.44611257 333.93433418 274.44702403 333.93438165 274.44818653 333.93446197 274.45015304 333.93456469 274.45266895 333.93477012 274.4577023 333.93518099 274.46777461 333.93600273 274.48793091 333.93764621 274.52826708 333.93912857 274.56466112 333.93927681 274.56830086 333.93957328 274.57558029 333.94016623 274.5901389 333.94135212 274.6192552 333.9437239 274.67748414 333.94846747 274.79392734 333.9579546 275.026755 333.97692887 275.49217551 334.01487741 276.42207809 334.09077449 278.27813577 334.24256865 281.9753115 334.54615697 289.31030413 335.1533336 303.74601361 336.20904789 328.11962347 337.26476217 351.59789403 338.32047646 374.21371157 339.37619075 395.99875469 340.43190503 416.98353858 341.48761932 437.19745781 342.5433336 456.66882734 343.59904789 475.42492234 344.65476217 493.49201618 345.71047646 510.89541736 346.76619075 527.65950482 347.82190503 543.80776219 348.87761932 559.36281054 349.9333336 574.34644015 350.98904789 588.77964095 352.04476217 602.68263197 353.10047646 616.07488957 354.15619075 628.97517481 355.21190503 641.4015596 356.26761932 653.37145213 357.3233336 664.90162114 358.37904789 676.00821947 359.27627143 685.12580661 359.28682857 685.23136251 359.30794286 685.44235584 359.35017143 685.8638691 359.43462857 686.70500552 359.60354286 688.37974614 359.94137143 691.69932269 359.95192857 691.80241902 359.97304286 692.00849597 360.01527143 692.42018749 360.09972857 693.24172447 360.16307143 693.85626492 360.2053 694.26519252 360.24752857 694.67350843 360.25808571 694.77549193 360.2792 694.97934446 360.28975714 695.08121352 360.31087143 695.28483731 360.32142857 695.38659207 360.33198571 695.48830875 360.33304143 695.49846355 360.33515286 695.51870733 360.33621483 695.52880392 360.33685264 695.53477601 360.33722401 695.53809942 360.33744514 695.53940279 360.33762057 695.53914697 360.33777145 695.53755928 360.33786619 695.53590092 360.33791127 695.53494991 360.33793483 695.53441789 360.33795032 695.53405911 360.33797141 695.53356688 360.33798396 695.53327356 360.33800482 695.53278661 360.3380265 695.5322808 360.33806985 695.53126917 360.33811433 695.53023144 360.33820327 695.52815601 360.33838117 695.52400514 360.33873696 695.51570351 360.33944854 695.49910055 360.3408717 695.46589591 360.34254286 695.42690719 360.34270997 695.42300845 360.34304421 695.41521104 360.34371267 695.39961649 360.3450496 695.36842851 360.34772345 695.30605706 360.35307116 695.18133215 360.36376659 694.93195432 360.38515743 694.43348643 360.42793912 693.43770071 360.5135025 691.45072072 360.68462927 687.49505712 361.0268828 679.65636311 361.71138985 664.26515001 362.76710414 641.25714783 363.82281842 619.10783717 364.87853271 597.78564589 365.93424699 577.26016804 366.98996128 557.50211882 368.04567557 538.48329571 369.10138985 520.17653635 370.15710414 502.55568293 371.21281842 485.59554265 372.26853271 469.27185518 373.32424699 453.56125553 374.37996128 438.44124443 375.43567557 423.89015328 376.49138985 409.88711736 377.54710414 396.41204273 378.60281842 383.445582 379.65853271 370.96910303 380.71424699 358.96466723 381.76996128 347.41499975 382.82567557 336.30347026 383.88138985 325.61406449 384.93710414 315.33136737 385.65857143 308.53096178 385.66912857 308.43279311 385.69024286 308.23657029 385.73247143 307.84458224 385.81692857 307.0624332 385.98584286 305.50541625 386.32367143 302.42029192 386.33422857 302.32450093 386.35534286 302.13303081 386.39757143 301.75053762 386.48202857 300.98733604 386.54537143 300.41649369 386.5876 300.03667276 386.62982857 299.65744326 386.64038571 299.56272821 386.6615 299.37340876 386.67205714 299.27880436 386.69317143 299.08970608 386.70372857 298.99521219 386.71428571 298.90075512 386.71534143 298.89131162 386.71745286 298.87242536 386.71851279 298.86294506 386.71914824 298.85729491 386.71937241 298.85539586 386.71947035 298.85465346 386.71953859 298.85421833 386.71960087 298.85392109 386.71970662 298.85377649 386.71985123 298.85480524 386.71991034 298.85579395 386.7199538 298.85674454 386.72001912 298.8582825 386.72006225 298.85930144 386.72011369 298.86051509 386.72020571 298.86268797 386.72031464 298.8652607 386.7205325 298.87040892 386.72096822 298.88071123 386.72177116 298.89970984 386.72337703 298.93773026 386.72484286 298.97244979 386.72498944 298.97592209 386.72528261 298.98286667 386.72586894 298.99675561 386.7270416 299.02453263 386.72938692 299.08008321 386.73407757 299.19117051 386.74345887 299.41328971 386.76222146 299.85730659 386.79974666 300.74445506 386.87479704 302.51521663 387.0248978 306.04264523 387.32509932 313.04149717 387.92550237 326.81812815 388.98121666 350.34420789 390.03693095 373.00607852 391.09264523 394.83548318 392.14835952 415.86299915 393.2040738 436.11808085 394.25978809 455.62910089 395.31550237 474.42338996 396.37121666 492.52727493 397.42693095 509.96611582 398.48264523 526.7643412 399.53835952 542.94548252 400.5940738 558.5322069 401.64978809 573.54634899 402.70550237 588.00894144 403.76121666 601.94024447 404.81693095 615.35977408 405.87264523 628.28632953 406.92835952 640.73801952 407.9840738 652.7322877 409.03978809 664.28593695 410.09550237 675.41515299 411.15121666 686.13552703 412.06198571 695.06680805 412.07254286 695.16864439 412.09365714 695.37220277 412.13588571 695.7788628 412.22034286 696.59035936 412.38925714 698.20608567 412.72708571 701.40868735 412.73764286 701.50815078 412.75875714 701.70696601 412.80098571 702.10415038 412.88544286 702.89673812 412.94878571 703.48962344 412.99101429 703.88414129 413.03324286 704.278069 413.0438 704.37645881 413.06491429 704.573128 413.07547143 704.67140741 413.09658571 704.86785592 413.10714286 704.96602505 413.1177 705.06415745 413.11875571 705.07395365 413.12086714 705.09347913 413.12192917 705.10321344 413.12256705 705.10896614 413.12293848 705.11214769 413.12316015 705.11333792 413.12333539 705.11295716 413.12348179 705.11131283 413.12357185 705.10969004 413.1236153 705.10875673 413.12363801 705.10823589 413.12365312 705.10788073 413.1236737 705.10739338 413.12368601 705.1071014 413.12370645 705.1066173 413.12372763 705.10611564 413.12377001 705.1051123 413.12381481 705.10405143 413.12390442 705.10192971 413.12408364 705.09768628 413.12444207 705.08919951 413.12515894 705.07222629 413.12659267 705.03828117 413.12825714 704.99887531 413.12842359 704.99493487 413.12875648 704.98705403 413.12942227 704.97129263 413.13075385 704.93977097 413.133417 704.87673216 413.13874331 704.75067268 413.14939593 704.49862615 413.17070115 703.99482274 413.21331161 702.98837339 413.29853253 700.98009588 413.46897436 696.98195588 413.80985803 689.05878232 414.49162537 673.50049192 415.54733965 650.14794609 416.60305394 627.66676082 417.65876823 606.02489648 418.71448251 585.19149685 419.7701968 565.13684334 420.82591108 545.83231562 421.88162537 527.2503488 422.93733965 509.36439735 423.99305394 492.14889492 425.04876823 475.57922138 426.10448251 459.63166505 427.1601968 444.28339271 428.21591108 429.51241401 429.27162537 415.29755424 430.32733965 401.61842077 431.38305394 388.45537846 432.43876823 375.78951785 433.49448251 363.60263316 434.5501968 351.87719204 435.60591108 340.596316 436.66162537 329.74375159 437.71733965 319.3038532 438.44428571 312.34759595 438.45484286 312.24794356 438.47595714 312.04875493 438.51818571 311.65084188 438.60264286 310.85686918 438.77155714 309.27631 439.10938571 306.14451821 439.11994286 306.04727779 439.14105714 305.85291044 439.18328571 305.4646292 439.26774286 304.6898773 439.33108571 304.11039467 439.37331429 303.72482424 439.41554286 303.33985376 439.4261 303.24370479 439.44721429 303.05151912 439.45777143 302.9554824 439.47888571 302.76352108 439.48944286 302.66759647 439.5 302.5717092 439.50105571 302.56212271 439.50316714 302.54295048 439.50422707 302.53332664 439.50486253 302.52758992 439.50508668 302.52565789 439.5051846 302.52489897 439.50525169 302.5244571 439.50531319 302.52414708 439.50541412 302.52395936 439.50555692 302.52483263 439.50561853 302.52578389 439.50566398 302.52674149 439.50571499 302.52793137 439.50576532 302.52911422 439.5058124 302.53021837 439.50587742 302.53174524 439.50596775 302.53386622 439.5061156 302.53733987 439.50639643 302.54394058 439.50691355 302.55610341 439.50794778 302.58044496 439.50848868 302.59318146 439.50957047 302.61865992 439.51055714 302.64190281 439.51065581 302.64422722 439.51085314 302.64887607 439.51124781 302.65817366 439.51203715 302.67676845 439.51361582 302.71395647 439.51677316 302.78832627 439.52308784 302.93704091 439.53571721 303.23437034 439.56097595 303.82863007 439.61149342 305.01555479 439.71252837 307.38303951 439.91459827 312.09266357 440.31873807 321.41143141 441.12701766 339.65414067 442.18273195 362.70870154 443.23844623 384.9163726 444.29416052 406.30826082 445.3498748 426.91433091 446.40558909 446.76344699 447.46130337 465.88341325 448.51701766 484.30101262 449.57273195 502.04204453 450.62844623 519.13136072 451.68416052 535.59290036 452.7398748 551.44972325 453.79558909 566.72404236 454.85130337 581.43725472 455.90701766 595.60997159 456.96273195 609.26204708 458.01844623 622.41260618 459.07416052 635.08007135 460.1298748 647.28218846 461.18558909 659.0360515 462.24130337 670.35812669 463.29701766 681.26427533 464.35273195 691.76977621 464.8477 696.56104731 464.91347818 697.19145648 465.04503453 698.44787524 465.30814723 700.94321654 465.37718888 701.59415224 465.51527217 702.89125598 465.6272477 703.93846025 465.67946323 704.42536436 465.78389429 705.39647386 465.79445143 705.4944452 465.81556572 705.69027793 465.85779429 706.08150399 465.86835143 706.17921902 465.8823 706.30826839 465.89285714 706.40589857 465.90341429 706.50349221 465.90447 706.51323452 465.90658143 706.53265202 465.90764343 706.54233154 465.90828129 706.54805108 465.90865273 706.55121071 465.90887448 706.5523833 465.90904972 706.55198326 465.90919552 706.55032952 465.90928479 706.54871379 465.90932798 706.54778357 465.90935054 706.54726473 465.9093656 706.54691018 465.9093861 706.5464236 465.90939838 706.54613184 465.90941876 706.54564811 465.90943986 706.54514738 465.90948206 706.54414593 465.90952691 706.5430816 465.90961661 706.54095295 465.90979602 706.53669567 465.91015484 706.52818119 465.91087248 706.51115255 465.91230776 706.47709661 465.91397143 706.43762363 465.9141378 706.43367648 465.91447053 706.42578221 465.915136 706.40999397 465.91646693 706.37841861 465.9191288 706.31527243 465.92445254 706.18899821 465.93510003 705.93652229 465.95639499 705.43186045 465.99898492 704.42369563 466.08416479 702.41199268 466.25452451 698.40702381 466.59524396 690.47028015 467.27668285 674.88519694 468.33239714 651.48099808 469.38811142 628.95005914 470.44382571 607.26027042 471.49953999 586.38070817 472.55525428 566.28158879 473.61096856 546.93422931 474.66668285 528.31100448 475.72239714 510.38531067 476.77811142 493.13152551 477.83382571 476.52497494 478.88953999 460.54189531 479.94525428 445.15940333 481.00096856 430.35546041 482.05668285 416.10884539 483.11239714 402.39912085 484.16811142 389.20660852 485.22382571 376.51235736 486.27953999 364.29812155 487.33525428 352.54633012 488.39096856 341.24006742 489.44668285 330.36304409 490.50239714 319.89958003 491.23 312.9213827 491.24055714 312.82150733 491.26167143 312.621873 491.3039 312.22306953 491.38835714 311.42731997 491.55727143 309.84322285 491.8951 306.70441787 491.90565714 306.60695964 491.92677143 306.41215688 491.969 306.02300582 492.05345714 305.24651813 492.1168 304.66573705 492.15902857 304.27930259 492.20125714 303.89346935 492.21181429 303.7971049 492.23292857 303.60448849 492.24348571 303.50823652 492.2646 303.31584495 492.27515714 303.21970533 492.28571429 303.12360313 492.28677 303.11399515 492.28888143 303.09477995 492.28994136 303.08513453 492.29057681 303.07938481 492.29080097 303.07744783 492.29089888 303.07668644 492.29096594 303.07624282 492.29102735 303.07593107 492.29112767 303.07573825 492.29127024 303.07659278 492.29133218 303.0775395 492.29137786 303.07849761 492.29142768 303.07965809 492.29147723 303.08082166 492.29152483 303.08193705 492.29158699 303.0833955 492.291677 303.08550727 492.291821 303.08888745 492.29209509 303.09532411 492.29260719 303.10735861 492.2936314 303.13144361 492.29422302 303.14536293 492.29508818 303.16572193 492.29627143 303.19357197 492.29638975 303.19635718 492.2966264 303.2019276 492.2970997 303.21306831 492.2980463 303.23534916 492.2999395 303.27990861 492.3037259 303.36901855 492.31129869 303.54720255 492.32644427 303.90342711 492.35673544 304.6153028 492.41731777 306.0367636 492.53848244 308.87054741 492.78081179 314.50175922 493.26547047 325.62030757 494.23478783 347.29405178 495.29050212 370.06796728 496.3462164 392.00530131 497.40193069 413.13678227 498.45764497 433.4920102 499.51335926 453.09949793 500.56907354 471.98671127 501.62478783 490.1801072 502.68050212 507.70517112 503.7362164 524.58645236 504.79193069 540.84759869 505.84764497 556.51138926 506.90335926 571.59976668 507.95907354 586.13386757 509.01478783 600.13405229 510.07050212 613.61993334 511.1262164 626.6104029 512.18193069 639.1236592 513.23764497 651.17723213 514.29335926 662.78800761 515.34907354 673.97225142 516.40478783 684.74563182 517.46050212 695.1232416 517.63341429 696.78605747 517.97923863 700.08129893 517.99747989 700.25399245 518.03396242 700.59904471 518.10692748 701.28781225 518.2528576 702.66001662 518.39726834 704.01096395 518.40030709 704.03931686 518.40638459 704.09601352 518.4185396 704.2093702 518.4428496 704.43593709 518.49146962 704.88848564 518.58870966 705.79124686 518.5992668 705.88907049 518.62038109 706.08460797 518.6469 706.32998996 518.65745714 706.42761201 518.66801429 706.52519754 518.67857143 706.62274655 518.68912857 706.72025906 518.69018429 706.72999324 518.69229571 706.74939449 518.69335772 706.75906582 518.69399558 706.76478041 518.69436702 706.76793669 518.6945888 706.76910648 518.69476404 706.76870328 518.69490973 706.76704812 518.69499887 706.76543359 518.69504202 706.76450389 518.69506457 706.76398539 518.69507961 706.76363094 518.6951001 706.76314449 518.69511237 706.76285276 518.69513274 706.7623691 518.69515383 706.76186852 518.695196 706.76086737 518.69524087 706.75980241 518.69533059 706.75767252 518.69551005 706.75341274 518.69586896 706.74489328 518.69658678 706.72785468 518.69802243 706.69377881 518.69968571 706.654302 518.69985204 706.65035446 518.7001847 706.64245943 518.70085001 706.62666965 518.70218064 706.59509123 518.7048419 706.53193892 518.71016441 706.40565243 518.72080942 706.15315197 518.74209946 705.64844101 518.78467954 704.64017779 518.86983969 702.6282774 519.04016 698.62291113 519.38080062 690.68536278 520.06208184 675.09863216 521.11779613 651.68647178 522.17351042 629.14786406 523.2292247 607.45068852 524.28493899 586.56401101 525.34065327 566.45803788 526.39636756 547.10407654 527.45208184 528.47449243 528.50779613 510.54267293 529.56351042 493.28298708 530.6192247 476.67075248 531.67493899 460.68219748 532.73065327 445.29443108 533.78636756 430.48540724 534.84208184 416.23389765 535.89779613 402.51945797 536.95351042 389.3224033 538.0092247 376.62377619 539.06493899 364.40532465 540.12065327 352.64947174 541.17636756 341.3392961 542.23208184 330.45850284 543.28779613 319.99140651 544.01571429 313.0077985 544.02627143 312.90788955 544.04738571 312.70818809 544.08961429 312.30925053 544.17407143 311.51323339 544.34298571 309.92860346 544.68081429 306.78874231 544.69137143 306.69125127 544.71248571 306.49638295 544.75471429 306.1071009 544.83917143 305.3303518 544.90251429 304.74937517 544.94474286 304.36281059 544.98697143 303.97684743 544.99752857 303.88045052 545.01864286 303.68776925 545.0292 303.59148486 545.05031429 303.39902849 545.06087143 303.30285649 545.07142857 303.20672192 545.07248429 303.19711071 545.07459571 303.17788904 545.07565565 303.16824037 545.0762911 303.16248869 545.07651525 303.16055097 545.07661317 303.1597892 545.07668022 303.15934532 545.07674162 303.15903331 545.07684185 303.15883974 545.07698438 303.15969145 545.07704637 303.16063749 545.07709209 303.16159568 545.07714174 303.16275196 545.07719118 303.16391288 545.07723886 303.16503004 545.07730062 303.16647892 545.07739061 303.16858979 545.07753408 303.17195706 545.07780724 303.17837126 545.07831872 303.19038959 545.07934168 303.21444225 545.0799398 303.22851244 545.08078949 303.24850499 545.08198571 303.27665692 545.08210534 303.27947232 545.08234458 303.28510313 545.08282307 303.2963646 545.08378005 303.31888698 545.08569401 303.36392944 545.08952194 303.45400519 545.09717778 303.63412004 545.11248947 303.99420314 545.14311284 304.71378335 545.20435959 306.15060305 545.32685309 309.01490483 545.57184009 314.70635978 546.0618141 325.94227418 547.0417621 347.83866676 548.09747639 370.5925763 549.15319067 392.51063921 550.20890496 413.6235569 551.26461924 433.9609034 552.32033353 453.55116652 553.37604782 472.42178794 554.4317621 490.59920141 555.48747639 508.10886995 556.54319067 524.9753213 557.59890496 541.22218248 558.65461924 556.87221264 559.71033353 571.94733511 560.76604782 586.46866794 561.8217621 600.45655363 562.87747639 613.93058741 563.93319067 626.90964491 564.98890496 639.41190835 566.04461924 651.45489223 567.10033353 663.05546764 568.15604782 674.22988607 569.2117621 684.99380201 570.26747639 695.36229502 570.41912857 696.8199299 570.72243294 699.71181733 570.86823412 701.0909368 571.15983647 703.82790202 571.17039361 703.92646026 571.1915079 704.12346614 571.23373647 704.51703587 571.31819361 705.30241051 571.32875075 705.40041705 571.34986504 705.59632013 571.39209361 705.98768673 571.40265075 706.08543686 571.42376504 706.28082741 571.43261429 706.36267441 571.45031278 706.52629141 571.46086992 706.62384001 571.46428571 706.65539432 571.46801127 706.68980578 571.47484286 706.75289462 571.47552602 706.75919682 571.47689233 706.77178296 571.47962497 706.79651545 571.47993473 706.79923563 571.48022158 706.80100547 571.4804074 706.80091793 571.48061211 706.79877688 571.48068981 706.79734944 571.48073422 706.79639437 571.48075654 706.79588105 571.48077062 706.79554917 571.48079029 706.79508206 571.4808016 706.79481313 571.48082025 706.79437033 571.48084225 706.79384798 571.480881 706.79292812 571.48091897 706.79202685 571.4809949 706.79022432 571.48114676 706.78661928 571.48145049 706.77940926 571.48205796 706.76498945 571.48327288 706.73615079 571.4854 706.68566237 571.48561271 706.68061377 571.48603814 706.67051662 571.48688898 706.6503228 571.48859068 706.60993702 571.49199407 706.52917286 571.49880085 706.36767421 571.51241442 706.0447955 571.53964155 705.39951219 571.59409581 704.11083972 571.70300434 701.54105311 571.92082138 696.43156765 572.35645548 686.33179373 573.22772367 666.59996046 574.28343795 643.50484638 575.33915224 621.27162689 576.39486652 599.86861169 577.45058081 579.26528095 578.50629509 559.43224022 579.56200938 540.34118132 580.61772367 521.96484016 581.67343795 504.27696083 582.72915224 487.25225615 583.78486652 470.86637476 584.84058081 455.09586409 585.89629509 439.91814033 586.95200938 425.31145364 588.00772367 411.25486082 589.06343795 397.7281925 590.11915224 384.71202844 591.17486652 372.18766649 592.23058081 360.13710038 593.28629509 348.54299027 594.34200938 337.38864297 595.39772367 326.65798385 596.45343795 316.33553941 596.80142857 313.02025353 597.16116162 309.63745081 597.17171876 309.53885189 597.19283304 309.34176903 597.23506162 308.94806284 597.31951876 308.16248515 597.48843304 306.59864137 597.51931429 306.31378831 597.58107677 305.7450538 597.70460173 304.61146062 597.71515887 304.51481673 597.73627316 304.32164176 597.77850173 303.93574265 597.78905887 303.83936174 597.81017316 303.64671245 597.81491429 303.60347446 597.82439654 303.51702115 597.83817835 303.39142101 597.84658571 303.3148321 597.85714286 303.21869287 597.85819857 303.2090812 597.86031 303.18985859 597.86136993 303.18020946 597.86200538 303.17445749 597.86222954 303.17251966 597.86232745 303.17175784 597.8623945 303.17131392 597.8624559 303.17100188 597.86255612 303.17080819 597.86269865 303.17165947 597.86276064 303.17260542 597.86280637 303.17356361 597.86285599 303.17471925 597.86290541 303.17587978 597.86295311 303.17699721 597.86301481 303.17844463 597.86310479 303.18055538 597.86324818 303.18392069 597.8635212 303.19033147 597.86403259 303.20234739 597.86505536 303.22639523 597.86565445 303.24048814 597.86650182 303.26042562 597.8677 303.28862299 597.86781982 303.29144294 597.86805945 303.29708283 597.86853872 303.30836249 597.86949727 303.33092122 597.87141435 303.37603638 597.87524852 303.46625751 597.88291686 303.646663 597.89825354 304.00732689 597.92892691 304.7280668 597.99027363 306.16719828 598.11296708 309.03609338 598.35835398 314.73661491 598.84912778 325.99019005 599.83067538 347.92007495 600.88638967 370.67099404 601.94210395 392.58617632 602.99781824 413.6963192 604.05353252 434.03099282 605.10924681 453.61868124 606.1649611 472.48682252 607.22067538 490.66184695 608.27638967 508.16921421 609.33210395 525.03344882 610.38781824 541.27817468 611.44353252 556.92614795 612.49924681 571.99928909 613.5549611 586.51871338 614.61067538 600.50476062 615.66638967 613.97702349 616.72210395 626.95437513 617.77781824 639.45499538 618.83353252 651.49639643 619.88924681 663.09544715 620.9449611 674.2683969 622.00067538 685.03089811 623.05638967 695.39802835 623.20484286 696.82480859 623.50174924 699.65596198 623.66674438 701.21643174 623.93056685 703.69270169 623.94112399 703.79131053 623.96223828 703.98841752 624.00446685 704.38218926 624.08892399 705.16796701 624.09164286 705.19322389 624.09708059 705.24373035 624.10795606 705.34471406 624.12970699 705.54656473 624.17320885 705.94979953 624.17355342 705.95299101 624.17424256 705.95937386 624.17562085 705.97213909 624.17837743 705.99766769 624.18389058 706.0487174 624.19491689 706.1507869 624.21696951 706.35480626 624.22752665 706.45241903 624.23944286 706.562554 624.25 706.66008903 624.26055714 706.75758757 624.26161286 706.76732036 624.26372429 706.7867188 624.2647863 706.79638875 624.26542416 706.80210249 624.2657956 706.80525818 624.26601738 706.80642747 624.26619262 706.80602368 624.26633829 706.80436827 624.26642741 706.80275396 624.26647055 706.80182437 624.26649309 706.80130593 624.26650813 706.8009515 624.26652862 706.80046508 624.2665409 706.80017336 624.26656126 706.79968971 624.26658234 706.79918916 624.26662452 706.79818805 624.26666938 706.79712297 624.26675912 706.79499282 624.26693858 706.79073253 624.26729752 706.78221204 624.26801539 706.7651714 624.26945112 706.73109143 624.27111429 706.69161526 624.2712806 706.68766778 624.27161323 706.67977288 624.2722785 706.66398336 624.27360903 706.63240545 624.27627009 706.56925417 624.28159221 706.44296973 624.29223646 706.19047337 624.31352495 705.68577058 624.35610192 704.6775236 624.44125587 702.66565527 624.61156378 698.66035146 624.95217959 690.72292156 625.63341121 675.13640256 626.68912549 651.72283326 627.74483978 629.18286845 628.80055406 607.48438571 629.85626835 586.59644906 630.91198263 566.48926307 631.96769692 547.13413344 633.02341121 528.50342396 634.07912549 510.57052045 635.13483978 493.30979039 636.19055406 476.69654992 637.24626835 460.70702598 638.30198263 445.31832619 639.35769692 430.50840322 640.41341121 416.25602746 641.46912549 402.54075339 642.52483978 389.34289489 643.58055406 376.64349339 644.63626835 364.42429582 645.69198263 352.66772418 646.74769692 341.35685608 647.80341121 330.47539568 648.85912549 320.00765658 649.58714286 313.02267983 649.5977 312.92276509 649.61881429 312.72305208 649.66104286 312.32409143 649.7455 311.5280282 649.91441429 309.94330652 650.25224286 306.8032635 650.2628 306.70576681 650.28391429 306.51088719 650.32614286 306.12158259 650.4106 305.34478848 650.47394286 304.76377817 650.51617143 304.37719118 650.5584 303.99120565 650.56895714 303.89480315 650.59007143 303.70211071 650.60062857 303.60582074 650.62174286 303.41335321 650.6323 303.31717563 650.64285714 303.22103549 650.64391286 303.21142373 650.64602429 303.19220094 650.64708422 303.18255171 650.64771967 303.17679969 650.64794383 303.17486184 650.64804174 303.17410001 650.64810879 303.17365608 650.64817018 303.17334403 650.6482704 303.17315033 650.64841293 303.17400155 650.64847492 303.17494748 650.64852065 303.17590568 650.64857027 303.17706124 650.64861969 303.17822172 650.64866739 303.17933918 650.64872908 303.18078643 650.64881906 303.18289716 650.64896244 303.18626224 650.64923545 303.19267262 650.64974683 303.20468824 650.65076958 303.22873549 650.65136878 303.24283099 650.65221588 303.2627621 650.65341429 303.29096466 650.65353413 303.29378513 650.65377381 303.29942606 650.65425317 303.3107078 650.65521189 303.33327068 650.65712934 303.37839416 650.66096423 303.46863192 650.66863401 303.64907064 650.68397357 304.00980096 650.71465269 304.73067349 650.77601094 306.17006935 650.89872744 309.03948973 651.14416044 314.74104804 651.63502643 325.99664242 652.61675841 347.93035564 653.67247269 370.68089708 654.72818698 392.59571558 655.78390126 413.70550804 656.83961555 434.03984411 657.89532984 453.62720738 658.95104412 472.49503546 660.00675841 490.66975819 661.06247269 508.17683483 662.11818698 525.04078949 663.17390126 541.28524569 664.22961555 556.93295921 665.28532984 572.00585014 666.34104412 586.5250334 667.39675841 600.51084847 668.45247269 613.98288771 669.50818698 626.96002392 670.56390126 639.46043666 671.61961555 651.50163781 672.67532984 663.10049599 673.73104412 674.27326026 674.78675841 685.03558281 675.84247269 695.40254096 675.99055714 696.82576291 676.28672604 699.64991082 676.45393363 701.23127899 676.71185627 703.65228934 676.72241341 703.75091329 676.74352769 703.94805051 676.78575627 704.34188263 676.87021341 705.12778088 676.87735714 705.19414749 676.89164461 705.32683032 676.92021955 705.59199446 676.97736943 706.12151779 676.98792657 706.21921784 677.00904086 706.4145083 677.019598 706.51209873 677.02515714 706.56347289 677.03515314 706.65582421 677.04627143 706.75850577 677.04732714 706.76823852 677.04943857 706.7876369 677.05050058 706.79730679 677.05113844 706.8030205 677.05150988 706.80617619 677.05173166 706.80734549 677.0519069 706.80694174 677.05205257 706.80528632 677.0521417 706.803672 677.05218484 706.8027424 677.05220738 706.80222395 677.05222242 706.80186952 677.05224291 706.80138309 677.05225518 706.80109137 677.05227554 706.80060772 677.05229663 706.80010717 677.0523388 706.79910607 677.05238367 706.79804101 677.0524734 706.7959109 677.05265286 706.79165071 677.05301179 706.78313041 677.05372964 706.76609013 677.05516534 706.73201089 677.05682857 706.6925331 677.05699489 706.68858546 677.05732754 706.68069023 677.05799283 706.66490006 677.05932342 706.63332085 677.06198458 706.57016697 677.06730692 706.44387733 677.07795158 706.19137058 677.09924092 705.68664703 677.14181959 704.67835862 677.22697693 702.66640781 677.39729161 698.66094054 677.73792097 690.72318956 678.41917969 675.13605143 679.47489398 651.72249524 680.53060827 629.18254304 681.58632255 607.48407245 682.64203684 586.5961475 683.69775112 566.48897279 684.75346541 547.13385402 685.80917969 528.503155 686.86489398 510.57026157 687.92060827 493.30954121 688.97632255 476.6963101 690.03203684 460.70679517 691.08775112 445.31810406 692.14346541 430.50818944 693.19917969 416.25582174 694.25489398 402.54055542 695.31060827 389.34270439 696.36632255 376.6433101 697.42203684 364.42411945 698.47775112 352.6675545 699.53346541 341.35669284 700.58917969 330.47523864 701.64489398 320.00750551 702.37285714 313.02304593 702.38341429 312.92313105 702.40452857 312.72341775 702.44675714 312.32445654 702.53121429 311.52839217 702.70012857 309.94366824 703.03795714 306.80362074 703.04851429 306.70612391 703.06962857 306.51124402 703.11185714 306.12193885 703.19631429 305.34514364 703.25965714 304.7641325 703.30188571 304.37754496 703.34411429 303.99155888 703.35467143 303.89515625 703.37578571 303.70246353 703.38634286 303.60617342 703.40745714 303.41370561 703.41801429 303.3175279 703.42857143 303.22138763 703.42962714 303.21177584 703.43173857 303.19255303 703.4327985 303.18290379 703.43343396 303.17715176 703.43365811 303.1752139 703.43375602 303.17445207 703.43382307 303.17400814 703.43388447 303.17369609 703.43398469 303.17350238 703.43412722 303.1743536 703.43418921 303.17529953 703.43423494 303.17625772 703.43428456 303.17741327 703.43433398 303.17857373 703.43438167 303.1796912 703.43444336 303.18113841 703.43453335 303.18324914 703.43467672 303.18661416 703.43494973 303.19302445 703.4354611 303.20504 703.43648385 303.22908712 703.43708308 303.24318325 703.43793011 303.26311284 703.43912857 303.29131665 703.43924842 303.29413724 703.43948811 303.29977842 703.43996749 303.31106065 703.44092626 303.33362453 703.44284379 303.37875 703.44667885 303.46899173 703.45434897 303.64943839 703.46968922 304.01018458 703.50036971 304.73108881 703.56173069 306.17054784 703.68445266 309.04009374 703.92989659 314.74189979 704.42078446 325.99797675 705.40256019 347.93260505 706.45827447 370.68306386 707.51398876 392.59780277 708.56970304 413.70751855 709.62541733 434.04178077 710.68113161 453.62907289 711.7368459 472.49683245 712.79256019 490.67148917 713.84827447 508.17850222 714.90398876 525.04239563 715.95970304 541.28679283 717.01541733 556.93444951 718.07113161 572.00728569 719.1268459 586.52641622 720.18256019 600.51218049 721.23827447 613.98417079 722.29398876 626.96125987 723.34970304 639.46162721 724.40541733 651.50278463 725.46113161 663.10160067 726.5168459 674.27432436 727.57256019 685.03660782 728.62827447 695.40352831 728.77627143 696.82590641 729.07226534 699.64839292 729.23999789 701.2347202 729.49652063 703.64261864 729.50707777 703.74124621 729.52819206 703.93839066 729.57042063 704.33223723 729.65487777 705.11816431 729.66307143 705.19428628 729.67945874 705.34646391 729.71223337 705.65055412 729.76643645 706.15268763 729.7769936 706.25037602 729.79810788 706.44564316 729.80866502 706.54322194 729.81087143 706.56361093 729.81528424 706.60438413 729.8231601 706.67713921 729.83198571 706.75864372 729.83286828 706.76678261 729.8346334 706.78302266 729.83552055 706.79114503 729.83608206 706.79625674 729.83720508 706.80599112 729.83749905 706.80718937 729.83770942 706.80589418 729.83782831 706.80403926 729.83788641 706.80285097 729.83791706 706.80215888 729.8379323 706.80180169 729.83795144 706.80134818 729.83796561 706.80101153 729.83798147 706.80063495 729.83800223 706.800142 729.83804375 706.79915623 729.83808469 706.79818427 729.83814835 706.79667314 729.8382745 706.79367839 729.83850794 706.78813706 729.8389748 706.77705453 729.83990853 706.75489005 729.8406754 706.73668715 729.84100913 706.7287655 729.8416766 706.71292249 729.84254286 706.69236163 729.84262948 706.69030559 729.84280273 706.6861935 729.84314924 706.67796942 729.84384224 706.66152155 729.84522825 706.62862706 729.84800028 706.56284298 729.85354432 706.43129451 729.86463241 706.16827625 729.88680859 705.64255432 729.93116096 704.5923676 730.01986568 702.4970128 730.19727513 698.32629903 730.55209402 690.06422919 731.26173181 673.85258611 732.3174461 650.48690614 733.37316038 627.99306964 734.42887467 606.33901927 735.48458895 585.49388152 736.54030324 565.4279214 737.59601752 546.11250252 738.65173181 527.52004478 739.7074461 509.62398772 740.76316038 492.39875092 741.81887467 475.81970034 742.87458895 459.8631113 743.93030324 444.50613763 744.98601752 429.72677694 746.04173181 415.50384247 747.0974461 401.81693044 748.15316038 388.6463945 749.20887467 375.97331488 750.26458895 363.77947534 751.32030324 352.04733399 752.37601752 340.76000261 753.43173181 329.90121892 754.4874461 319.4553282 755.15857143 313.02301459 755.16912857 312.92309973 755.19024286 312.72338645 755.23247143 312.32442528 755.31692857 311.52836102 755.48584286 309.94363728 755.82367143 306.80359017 755.83422857 306.70609336 755.85534286 306.51121349 755.89757143 306.12190837 755.98202857 305.34511325 756.04537143 304.76410219 756.0876 304.3775147 756.12982857 303.99152866 756.14038571 303.89512604 756.1615 303.70243334 756.17205714 303.60614324 756.19317143 303.41367546 756.20372857 303.31749776 756.21428571 303.2213575 756.21534143 303.21174572 756.21745286 303.19252291 756.21851279 303.18287367 756.21914824 303.17712164 756.2193724 303.17518379 756.21947031 303.17442196 756.21953736 303.17397803 756.21959875 303.17366597 756.21969897 303.17347226 756.2198415 303.17432344 756.21990349 303.17526936 756.21994922 303.17622756 756.21999884 303.17738304 756.22004826 303.17854346 756.22009596 303.17966097 756.22015764 303.18110803 756.22024762 303.18321874 756.22039099 303.18658357 756.22066398 303.19299351 756.22117534 303.20500884 756.22219807 303.2290555 756.2227974 303.24315404 756.2236442 303.26307789 756.22484286 303.29128653 756.22496272 303.2941076 756.22520246 303.29974975 756.22568192 303.31103392 756.22664085 303.33360166 756.22855871 303.37873486 756.23239443 303.46899205 756.24006586 303.64946961 756.25540874 304.01027755 756.28609448 304.73130507 756.34746598 306.1710099 756.47020896 309.04104418 756.71569493 314.7438143 757.20666687 326.00176939 758.18861074 347.93996037 759.24432503 370.69014898 760.30003931 392.60462762 761.3557536 413.7140927 762.41146789 434.04811342 763.46718217 453.63517291 764.52289646 472.50270839 765.57861074 490.67714925 766.63432503 508.18395438 767.69003931 525.04764751 768.7457536 541.29185178 769.80146789 556.93932262 770.85718217 572.01197979 771.91289646 586.53093787 772.96861074 600.51653604 774.02432503 613.98836634 775.08003931 626.96530129 776.1357536 639.46552016 777.19146789 651.50653457 778.24718217 663.10521286 779.30289646 674.27780385 780.35861074 685.03995949 781.41432503 695.40675685 781.56198571 696.82589468 781.85730709 699.6420016 782.02705726 701.24739164 782.27819966 703.60489805 782.2887568 703.70353973 782.30987109 703.9007124 782.35209966 704.29461532 782.4365568 705.08065487 782.44878571 705.1942739 782.47324353 705.42136425 782.52215918 705.8749548 782.53271632 705.97274711 782.5538306 706.16822198 782.57547143 706.36841974 782.58602857 706.46602741 782.59658571 706.56359856 782.60714286 706.6611332 782.6177 706.75863135 782.61875571 706.7683641 782.62086714 706.78776246 782.62192915 706.79743235 782.62256701 706.80314606 782.62293845 706.80630175 782.62316023 706.80747105 782.62333547 706.8070673 782.62348114 706.80541188 782.62357027 706.80379756 782.62361341 706.80286795 782.62363595 706.80234951 782.62365099 706.80199508 782.62367148 706.80150865 782.62368375 706.80121693 782.62370412 706.80073328 782.6237252 706.80023273 782.62376737 706.79923162 782.62381224 706.79816656 782.62390197 706.79603646 782.62408143 706.79177627 782.62444036 706.78325597 782.62515821 706.76621569 782.62659391 706.73213647 782.62825714 706.69265863 782.62842347 706.68871099 782.62875611 706.68081575 782.6294214 706.66502556 782.63075199 706.63344631 782.63341316 706.57029235 782.6387355 706.44400257 782.64938018 706.19149552 782.67066953 705.68677138 782.71324824 704.67848178 782.79840567 702.6665286 782.96872052 698.66105663 783.30935022 690.72329642 783.99060962 675.13614044 785.0463239 651.72258092 786.10203819 629.18262553 787.15775247 607.48415186 788.21346676 586.59622395 789.26918104 566.48904638 790.32489533 547.13392485 791.38060962 528.50322318 792.4363239 510.57032719 793.49203819 493.30960438 794.54775247 476.69637089 795.60346676 460.70685368 796.65918104 445.31816037 797.71489533 430.50824363 798.77060962 416.25587389 799.8263239 402.5406056 800.88203819 389.34275268 801.93775247 376.64335656 802.99346676 364.42416416 804.04918104 352.66759751 805.10489533 341.35673422 806.16060962 330.47527845 807.2163239 320.00754381 807.94428571 313.02309599 807.95484286 312.9231811 807.97595714 312.72346776 808.01818571 312.32450647 808.10264286 311.52844195 808.27155714 309.9437177 808.60938571 306.80366959 808.61994286 306.70617274 808.64105714 306.51129281 808.68328571 306.12198758 808.76774286 305.34519221 808.83108571 304.76418096 808.87331429 304.37759335 808.91554286 303.99160718 808.9261 303.89520453 808.94721429 303.70251177 808.95777143 303.60622165 808.97888571 303.41375382 808.98944286 303.31757609 809 303.22143578 809.00105571 303.211824 809.00316714 303.19260118 809.00422707 303.18295194 809.00486253 303.1771999 809.00508668 303.17526205 809.0051846 303.17450022 809.00525164 303.17405629 809.00531304 303.17374424 809.00541326 303.17355053 809.00555579 303.17440174 809.00561778 303.17534767 809.00566351 303.17630587 809.00571313 303.17746141 809.00576255 303.17862187 809.00581025 303.17973935 809.00587194 303.18118655 809.00596192 303.18329727 809.00610529 303.18666229 809.0063783 303.19307256 809.00688967 303.20508811 809.00791242 303.22913521 809.00851165 303.24323142 809.00935868 303.26316081 809.01055714 303.29136478 809.01067699 303.29418539 809.01091668 303.29982661 809.01139607 303.31110891 809.01235484 303.33367292 809.01427238 303.37879866 809.01810747 303.46904093 809.02577764 303.64948867 809.04111797 304.01023702 809.07179865 304.73114555 809.13316001 306.17061316 809.25588272 309.04017612 809.50132813 314.74201584 809.99221897 325.99815837 810.97400065 347.93291102 812.02971493 370.68335858 813.08542922 392.59808667 814.1411435 413.70779202 815.19685779 434.04204419 816.25257208 453.62932664 817.30828636 472.49707687 818.36400065 490.67172461 819.41971493 508.17872901 820.47542922 525.0426141 821.5311435 541.28700327 822.58685779 556.93465222 823.64257208 572.00748096 824.69828636 586.52660431 825.75400065 600.51236167 826.80971493 613.98434532 827.86542922 626.96142799 828.9211435 639.46178915 829.97685779 651.50294062 831.03257208 663.10175093 832.08828636 674.2744691 833.14400065 685.03674724 834.19971493 695.40366261 834.3477 696.82592603 834.64367013 699.64818677 834.81147402 701.23518796 835.06780652 703.64130453 835.07836366 703.73993259 835.09947795 703.93707802 835.14170652 704.33092656 835.22616366 705.11685756 835.2345 705.19430526 835.25117267 705.34913203 835.28451802 705.65851121 835.33672359 706.14214228 835.34728073 706.23983462 835.36839502 706.43510965 835.37895216 706.53269237 835.3823 706.5636298 835.38899568 706.62549364 835.39002292 706.63498343 835.39207741 706.65396197 835.39618639 706.69191489 835.40341429 706.75866257 835.40413708 706.7653298 835.40558265 706.77864299 835.40847381 706.80450086 835.40898158 706.80502011 835.40965156 706.79485423 835.40965358 706.79480635 835.40965761 706.79471057 835.40966569 706.79451895 835.40968183 706.79413564 835.40970282 706.79363753 835.40974478 706.79264133 835.40982871 706.79064894 835.40999657 706.78666417 835.4103323 706.77869471 835.41100375 706.76275608 835.41234664 706.73087997 835.41397143 706.69231462 835.41413391 706.68845822 835.41445887 706.68074547 835.41510878 706.66532024 835.41640861 706.63447085 835.41900827 706.5727764 835.4242076 706.4494048 835.43460625 706.20273081 835.45540354 705.70965955 835.49699814 704.72462281 835.58018733 702.75896436 835.74656571 698.84524262 836.07932246 691.08766329 836.74483598 675.8478841 837.80055026 652.40777564 838.85626455 629.8422473 839.91197883 608.11914118 840.96769312 587.20748607 842.0234074 567.07745373 843.07912169 547.70031703 844.13483598 529.04840942 845.19055026 511.09508617 846.24626455 493.81468671 847.30197883 477.18249871 848.35769312 461.1747232 849.4134074 445.76844124 850.46912169 430.94158159 851.52483598 416.67288986 852.58055026 402.94189847 853.63626455 389.72889813 854.69197883 377.01491001 855.74769312 364.78165927 856.8034074 353.01154934 857.85912169 341.6876374 858.91483598 330.79361056 859.97055026 320.31376323 860.73 313.02293063 860.74055714 312.92301579 860.76167143 312.72330258 860.8039 312.32434155 860.88835714 311.52827754 861.05727143 309.94355431 861.3951 306.80350827 861.40565714 306.70601149 861.42677143 306.51113168 861.469 306.12182669 861.55345714 305.34503183 861.6168 304.76402096 861.65902857 304.37743359 861.70125714 303.99144768 861.71181429 303.89504509 861.73292857 303.70235245 861.74348571 303.60606239 861.7646 303.41359469 861.77515714 303.31741702 861.78571429 303.22127677 861.78677 303.21166499 861.78888143 303.19244219 861.78994136 303.18279297 861.79057681 303.17704095 861.79080096 303.1751031 861.79089888 303.17434127 861.79096592 303.17389733 861.79102732 303.17358527 861.79112754 303.17339154 861.79127006 303.1742426 861.79133206 303.1751885 861.79137779 303.17614671 861.7914274 303.177302 861.79147681 303.17846231 861.79152451 303.17957991 861.79158618 303.18102652 861.79167616 303.18313721 861.7918195 303.18650145 861.79209245 303.19291037 861.79260378 303.20492502 861.79362645 303.22897031 861.79422609 303.24307605 861.79507215 303.26298278 861.79627143 303.29120582 861.79639136 303.29402833 861.79663121 303.29967337 861.79711092 303.31096329 861.79807034 303.33354257 861.79998918 303.37869881 861.80382685 303.46900208 861.81150221 303.64957179 861.82685292 304.01056385 861.85755433 304.73195903 861.91895716 306.17239677 862.04176282 309.04388733 862.28737414 314.74953209 862.77859677 326.01308734 863.76104204 347.96190115 864.81675633 370.71128378 865.87247061 392.62498606 866.9281849 413.73370328 867.98389918 434.06700361 869.03961347 453.65336919 870.09532776 472.52023622 871.15104204 490.69403321 872.20675633 508.20021811 873.26247061 525.06331379 874.3181849 541.30694255 875.37389918 556.95385903 876.42961347 572.0259822 877.48532776 586.5444259 878.54104204 600.52952858 879.59675633 614.00088159 880.65247061 626.97735679 881.7081849 639.47713279 882.76389918 651.5177206 883.81961347 663.11598796 884.87532776 674.28818312 885.93104204 685.04995747 886.98675633 695.41638755 887.13341429 696.82586341 887.4267302 699.62294607 887.60249674 701.28517673 887.83759551 703.49239084 887.84815265 703.59107462 887.86926694 703.78833143 887.91149551 704.18240246 887.99595265 704.96877746 888.02021429 705.19424086 888.06873755 705.64458643 888.09208203 705.86097123 888.138771 706.29320407 888.14932814 706.39083989 888.16801429 706.56356577 888.17857143 706.66110043 888.18912857 706.75859858 888.19018429 706.76833133 888.19229571 706.7877297 888.19335772 706.79739959 888.19399558 706.8031133 888.19436702 706.80626898 888.1945888 706.80743829 888.19476404 706.80703454 888.19490972 706.80537912 888.19499884 706.8037648 888.19504198 706.80283519 888.19506452 706.80231675 888.19507956 706.80196232 888.19510005 706.80147589 888.19511232 706.80118417 888.19513269 706.80070052 888.19515377 706.80019997 888.19519594 706.79919886 888.19524081 706.79813381 888.19533054 706.7960037 888.19551 706.79174351 888.19586893 706.78322322 888.19658678 706.76618297 888.19802248 706.73210378 888.19968571 706.69262587 888.19985204 706.68867823 888.20018468 706.68078298 888.20084998 706.66499276 888.20218056 706.63341346 888.20484174 706.5702594 888.21016409 706.44396941 888.22080878 706.19146195 888.24209817 705.68673699 888.28467696 704.67844575 888.36983453 702.66648932 888.54014966 698.66101089 888.88077993 690.72323803 889.56204047 675.13605765 890.61775476 651.72250122 891.67346904 629.18254881 892.72918333 607.484078 893.78489761 586.59615284 894.8406119 566.48897794 895.89632618 547.13385897 896.95204047 528.50315977 898.00775476 510.57026615 899.06346904 493.30954563 900.11918333 476.69631435 901.17489761 460.70679925 902.2306119 445.31810799 903.28632618 430.50819323 904.34204047 416.25582538 905.39775476 402.54055892 906.45346904 389.34270776 907.50918333 376.64331334 908.56489761 364.42412258 909.6206119 352.6675575 910.67632618 341.35669573 911.73204047 330.47524142 912.78775476 320.00750819 913.51571429 313.02308293 913.52627143 312.92316804 913.54738571 312.72345471 913.58961429 312.32449344 913.67407143 311.52842896 913.84298571 309.9437048 914.18081429 306.80365685 914.19137143 306.70616 914.21248571 306.51128008 914.25471429 306.12197486 914.33917143 305.34517954 914.40251429 304.76416832 914.44474286 304.37758072 914.48697143 303.99159458 914.49752857 303.89519194 914.51864286 303.70249919 914.5292 303.60620907 914.55031428 303.41374125 914.56087143 303.31756352 914.57142857 303.22142322 914.57248429 303.21181144 914.57459571 303.19258862 914.57565565 303.18293938 914.5762911 303.17718734 914.57651525 303.17524949 914.57661317 303.17448766 914.57668021 303.17404373 914.57674161 303.17373168 914.57684183 303.17353797 914.57698436 303.17438918 914.57704635 303.17533511 914.57709208 303.17629331 914.5771417 303.17744885 914.57719112 303.17860932 914.57723882 303.17972679 914.57730051 303.18117399 914.57739049 303.18328472 914.57753386 303.18664973 914.57780687 303.19306001 914.57831824 303.20507556 914.57934099 303.22912266 914.57994022 303.24321885 914.58078725 303.2631483 914.58198571 303.29135222 914.58210556 303.29417283 914.58234525 303.29981404 914.58282464 303.31109632 914.58378341 303.3336603 914.58570095 303.37878597 914.58953603 303.4690281 914.59720618 303.64947556 914.6125465 304.01022335 914.64322713 304.73113076 914.70458839 306.17059616 914.8273109 309.0401547 915.07275594 314.74198571 915.56364601 325.99811128 916.54542614 347.93283176 917.60114043 370.68328223 918.65685471 392.59801312 919.712569 413.70772118 920.76828328 434.04197595 921.82399757 453.62926091 922.87971186 472.49701355 923.93542614 490.67166362 924.99114043 508.17867026 926.04685471 525.0425575 927.102569 541.28694875 928.15828328 556.93459971 929.21399757 572.00743037 930.26971186 586.52655558 931.32542614 600.51231474 932.38114043 613.98430011 933.43685471 626.96138443 934.492569 639.4617472 935.54828328 651.50290021 936.60399757 663.101712 937.65971186 674.27443161 938.71542614 685.03671113 939.77114043 695.40362782 939.91912857 696.82592091 940.21510486 699.64824007 940.38289028 701.23506689 940.63927201 703.6416445 940.64982915 703.74027244 940.67094344 703.93741762 940.71317201 704.33126565 940.79762915 705.11719563 940.80592857 705.19430031 940.82252741 705.34844163 940.85572509 705.65645233 940.9084475 706.14487084 940.91900464 706.24256216 940.94011893 706.43783515 940.95067607 706.53541685 940.95372857 706.56362488 940.95983357 706.62003178 940.96263286 706.64589165 940.96823144 706.69760369 940.97484286 706.75865765 940.975504 706.76475681 940.97682628 706.77693839 940.97947085 706.8009547 940.98011087 706.80566177 940.98043761 706.80561627 940.9808044 706.80022969 940.98086686 706.7987564 940.98093455 706.79714805 940.98096002 706.79654328 940.98098437 706.79596444 940.98100713 706.79542406 940.98103076 706.79486306 940.98107803 706.79374103 940.98113028 706.79250067 940.98123478 706.79001996 940.98144378 706.78505857 940.98186179 706.77513591 940.9826978 706.75529103 940.98372797 706.73083803 940.9854 706.69115154 940.9855672 706.68718304 940.98590161 706.67924607 940.98657042 706.66337243 940.98790804 706.6316263 940.99058328 706.56813861 940.99593376 706.44118156 941.00663472 706.18734074 941.02803664 705.67995214 941.07084048 704.66634589 941.15644817 702.64380835 941.32766355 698.61736233 941.6700943 690.63842397 942.35495579 674.97192202 943.41067008 651.56448847 944.46638436 629.03043312 945.52209865 607.33764326 946.57781294 586.45518949 947.63352722 566.35328561 948.68924151 547.00324317 949.74495579 528.3774348 950.80067008 510.44925148 951.85638436 493.19306916 952.91209865 476.58420848 953.96781294 460.59890457 955.02352722 445.21426886 956.07924151 430.408262 957.13495579 416.15965754 958.19067008 402.44801774 959.24638436 389.25365902 960.30209865 376.5576305 961.35781294 364.34168094 962.41352722 352.58824001 963.46924151 341.28038649 964.52495579 330.40183223 965.58067008 319.9368913 966.30142857 313.02250057 966.31198571 312.9225859 966.3331 312.72287302 966.37532857 312.32391265 966.45978571 311.52784998 966.6287 309.94312938 966.96652857 306.80308864 966.97708571 306.70559203 966.9982 306.51071255 967.04042857 306.12140821 967.12488571 305.34461464 967.18822857 304.76360474 967.23045714 304.37701802 967.27268571 303.99103276 967.28324286 303.89463033 967.30435714 303.70193802 967.31491429 303.60564811 967.33602857 303.41318073 967.34658571 303.31700322 967.35714286 303.22086314 967.35819857 303.21125138 967.36031 303.1920286 967.36136993 303.18237944 967.36200538 303.17662744 967.36222953 303.17468959 967.36232744 303.17392775 967.36239449 303.17348382 967.36245588 303.17317175 967.36255609 303.17297797 967.36269861 303.17382881 967.36276061 303.17477466 967.36280635 303.1757329 967.36285594 303.1768878 967.36290534 303.17804788 967.36295305 303.17916567 967.36301468 303.1806114 967.36310466 303.18272204 967.36324795 303.18608511 967.36352082 303.19249199 967.36403209 303.20450529 967.36505465 303.22854789 967.36565489 303.24266795 967.36649951 303.26254065 967.3677 303.29079232 967.36782005 303.29361771 967.36806015 303.29926847 967.36854034 303.31056985 967.36950074 303.33317204 967.37142152 303.37837411 967.37526309 303.46876902 967.38294623 303.64952191 967.39831251 304.01088005 967.42904506 304.73300619 967.49051017 306.17490109 967.61344039 309.04928696 967.85930083 314.76064696 968.35102171 326.03533599 969.33446347 348.00526866 970.39017775 370.75305823 971.44589204 392.66522595 972.50160632 413.77246499 973.55732061 434.10434143 974.61303489 453.68933541 975.66874918 472.55488124 976.72446347 490.72740554 977.78017775 508.23236451 978.83589204 525.09427929 979.89160632 541.33677054 980.94732061 556.98259128 982.00303489 572.05365896 983.05874918 586.57108594 984.11446347 600.55520925 985.17017775 614.02561887 986.22589204 627.00118533 987.28160632 639.50008598 988.33732061 651.53983058 989.39303489 663.13728572 990.44874918 674.30869849 991.50446347 685.06971918 992.56017775 695.43542329 992.70484286 696.82569818 992.99417307 699.58496845 993.18189672 701.36015493 993.38510984 703.26854822 993.39566698 703.36731575 993.41678127 703.56473997 993.45900984 703.95914546 993.54346698 704.74618786 993.59164286 705.19407653 993.6642054 705.86724497 993.67476254 705.96504016 993.69587682 706.16052079 993.71832857 706.3682235 993.72888571 706.46583124 993.73944286 706.56340247 993.75 706.66093718 993.76055714 706.7584354 993.76161286 706.76816816 993.76372429 706.78756654 993.76478633 706.79723674 993.76542421 706.80295061 993.76579566 706.80610617 993.76601745 706.80727505 993.76619271 706.80687047 993.76633833 706.80521511 993.76642743 706.80360109 993.76647056 706.80267168 993.76649309 706.80215334 993.76650813 706.80179894 993.76652862 706.80131257 993.76654089 706.80102086 993.76656125 706.80053726 993.76658234 706.8000367 993.76662451 706.79903557 993.76666939 706.79797013 993.76675916 706.79583927 993.76693868 706.79157755 993.76729774 706.78305421 993.76801585 706.76600786 993.76945206 706.73191648 993.77111429 706.69246254 993.77128051 706.68851729 993.77161295 706.68062684 993.77227784 706.66484621 993.77360762 706.63328609 993.77626718 706.57017037 993.7815863 706.44395704 993.79222453 706.19160283 993.813501 705.68718399 993.85605394 704.67950361 993.94115982 702.66876328 994.11137158 698.66569478 994.4517951 690.73265358 995.13264213 675.15459178 996.18835641 651.740344 997.2440707 629.19972565 998.29978498 607.50061339 999.35549927 586.61207037 1000.41121356 566.5043003 1001.46692784 547.14860805 1002.52264213 528.51735663 1003.57835641 510.58393108 1004.6340707 493.32269815 1005.68978498 476.70897329 1006.74549927 460.71898273 1007.80121356 445.32983346 1008.85692784 430.51947748 1009.91264213 416.26668461 1010.96835641 402.5510087 1012.0240707 389.3527631 1013.07978498 376.65298868 1014.13549927 364.43343184 1015.19121356 352.67651408 1016.24692784 341.36531252 1017.30264213 330.48353084 1018.35835641 320.01548219 1019.08714286 313.02301712 1019.0977 312.92310226 1019.11881429 312.72338898 1019.16104286 312.32442781 1019.2455 311.52836354 1019.41441429 309.94363978 1019.75224286 306.80359263 1019.7628 306.70609581 1019.78391429 306.51121594 1019.82614286 306.12191082 1019.9106 305.34511569 1019.97394286 304.76410463 1020.01617143 304.37751713 1020.0584 303.99153109 1020.06895714 303.89512847 1020.09007143 303.70243577 1020.10062857 303.60614567 1020.12174286 303.41367789 1020.1323 303.31750019 1020.14285714 303.22135992 1020.14391286 303.21174814 1020.14602429 303.19252533 1020.14708422 303.18287609 1020.14771967 303.17712406 1020.14794383 303.1751862 1020.14804174 303.17442437 1020.14810879 303.17398044 1020.14817018 303.17366839 1020.1482704 303.17347468 1020.14841293 303.1743259 1020.14847492 303.17527183 1020.14852065 303.17623002 1020.14857027 303.17738557 1020.14861969 303.17854604 1020.14866739 303.17966351 1020.14872908 303.18111072 1020.14881906 303.18322144 1020.14896244 303.18658647 1020.14923544 303.19299677 1020.14974682 303.20501233 1020.15076957 303.22905946 1020.15136879 303.24315553 1020.15221583 303.26308525 1020.15341429 303.29128895 1020.15353413 303.29410953 1020.15377382 303.2997507 1020.1542532 303.31103289 1020.15521196 303.33359668 1020.15712949 303.37872199 1020.16096453 303.46896338 1020.16863463 303.64940938 1020.18397482 304.01015424 1020.2146552 304.73105582 1020.27601595 306.17050956 1020.39873746 309.04004496 1020.64418048 314.74183029 1021.13506651 325.99786688 1022.11683859 347.93241863 1023.17255287 370.68288428 1024.22826716 392.59762978 1025.28398144 413.70735193 1026.33969573 434.04162026 1027.39541001 453.62891828 1028.4511243 472.49668352 1029.50683859 490.67134571 1030.56255287 508.17836403 1031.61826716 525.04226252 1032.67398144 541.2866646 1033.72969573 556.934326 1034.78541001 572.00716672 1035.8411243 586.52630161 1036.89683859 600.5120701 1037.95255287 613.98406445 1039.00826716 626.96115744 1040.06398144 639.46152854 1041.11969573 651.50268958 1042.17541001 663.10150912 1043.2311243 674.27423617 1044.28683859 685.03652287 1045.34255287 695.40344648 1045.49055714 696.82589512 1045.78656569 699.64852051 1045.95425434 701.23443323 1046.21089411 703.64342776 1046.22145125 703.74205503 1046.24256554 703.93919888 1046.28479411 704.33304424 1046.36925125 705.11896891 1046.37735714 705.19427536 1046.39356892 705.34482337 1046.42599248 705.64565998 1046.48142432 706.1591751 1046.49198146 706.25686107 1046.51309575 706.45212336 1046.52365289 706.54969972 1046.52515714 706.56360008 1046.52816565 706.59139859 1046.53418266 706.64698671 1046.5342374 706.64749241 1046.53434689 706.6485038 1046.53456587 706.65052659 1046.53500382 706.6545721 1046.53587973 706.66266294 1046.53763155 706.67884387 1046.54113518 706.71120271 1046.54627143 706.75863287 1046.54678505 706.76337221 1046.5478123 706.7728421 1046.54986681 706.79167933 1046.55090105 706.8010342 1046.55152304 706.80598567 1046.55178122 706.80677517 1046.55196524 706.8056631 1046.55209037 706.80380686 1046.5521528 706.80255768 1046.55218583 706.80181968 1046.55220231 706.80143528 1046.55221854 706.80105121 1046.55223631 706.80062898 1046.55225239 706.80024721 1046.55226951 706.79984063 1046.55230377 706.79902747 1046.5523453 706.79804149 1046.55242837 706.79606953 1046.55259451 706.79212563 1046.55292679 706.78423791 1046.55359134 706.76846274 1046.55492045 706.73691353 1046.55682857 706.69162301 1046.55701938 706.68709415 1046.55740101 706.67803648 1046.55816425 706.65992151 1046.55969075 706.62369308 1046.56274374 706.55124218 1046.56884972 706.40636424 1046.58106167 706.11670381 1046.60548558 705.53776451 1046.65433341 704.38141049 1046.75202905 702.07478761 1046.94742035 697.48577732 1047.33820293 688.40386408 1048.11976811 670.61789389 1049.17548239 647.37288163 1050.23119668 624.99527558 1051.28691097 603.45318247 1052.34262525 582.71588615 1053.39833954 562.75380388 1054.45405382 543.53844524 1055.50976811 525.04237151 1056.56548239 507.23915758 1057.62119668 490.10335429 1058.67691097 473.61045318 1059.73262525 457.73685143 1060.78833954 442.45981935 1061.84405382 427.75746773 1062.89976811 413.60871785 1063.95548239 399.9932711 1065.01119668 386.89158129 1066.06691097 374.28482641 1067.12262525 362.15488312 1068.17833954 350.48430042 1069.23405382 339.25627623 1070.28976811 328.45463284 1071.34548239 318.06379542 1071.87285714 313.02273855 1071.87382193 313.01360601 1071.87575151 312.99534189 1071.87961066 312.95881754 1071.88732897 312.8857844 1071.90276558 312.73978037 1071.9336388 312.4480211 1071.99538525 311.86549635 1072.11887815 310.70441131 1072.36586394 308.39801327 1072.43459984 307.75987293 1072.57207165 306.4884291 1072.65362781 305.73717552 1072.7654591 304.71070728 1072.77601624 304.61402477 1072.79713053 304.4207726 1072.8393591 304.03471925 1072.84411429 303.99128504 1072.85362466 303.90443945 1072.87264539 303.7308396 1072.89052995 303.56772057 1072.89280231 303.54700281 1072.89734704 303.50557249 1072.9064365 303.42273269 1072.91039252 303.38668682 1072.91830457 303.31461084 1072.92857143 303.22111464 1072.92959811 303.21176715 1072.93165149 303.19307287 1072.93268227 303.18368894 1072.93330025 303.17806508 1072.93354621 303.17586185 1072.93368079 303.17471873 1072.93375382 303.17415144 1072.93381258 303.17375012 1072.93386771 303.17344389 1072.93395439 303.17317505 1072.93412774 303.1740543 1072.93420247 303.17525225 1072.93424809 303.17625308 1072.93431845 303.17790101 1072.93436101 303.17889947 1072.93441432 303.18014947 1072.93452095 303.18265075 1072.93468738 303.18655665 1072.93502025 303.19437341 1072.93568599 303.21001814 1072.93701746 303.24133145 1072.93912857 303.29100704 1072.93933968 303.2959756 1072.93976191 303.30591264 1072.94060635 303.32578627 1072.94229524 303.36553175 1072.94567302 303.44501557 1072.95242858 303.60395467 1072.96593971 303.92171871 1072.99296196 304.55679046 1073.04700645 305.82511083 1073.15509544 308.35447641 1073.37127343 313.38424584 1073.80362939 323.32903882 1074.66834132 342.76830044 1075.72405561 365.70846546 1076.77976989 387.80594249 1077.83548418 409.09168425 1078.89119846 429.59550676 1079.94691275 449.34613098 1081.00262703 468.37122313 1082.05834132 486.69743333 1083.11405561 504.35043296 1084.16976989 521.35495054 1085.22548418 537.7348064 1086.28119846 553.51294599 1087.33691275 568.71147206 1088.39262703 583.3516755 1089.44834132 597.45406528 1090.50405561 611.03839705 1091.55976989 624.12370088 1092.61548418 636.72830786 1093.67119846 648.86987579 1094.72691275 660.56541387 1095.78262703 671.8313066 1096.83834132 682.68333661 1097.89405561 693.13670686 1098.27627143 696.82548914 1098.56755407 699.60328576 1098.74942043 701.32314373 1098.96825299 703.37793986 1098.97881013 703.47666646 1098.99992442 703.67400887 1099.04215299 704.0682509 1099.12661013 704.85496715 1099.16307143 705.19387582 1099.23599402 705.87038073 1099.24655117 705.96817475 1099.26766545 706.16365303 1099.28975714 706.36802369 1099.30031429 706.46563151 1099.31087143 706.56320281 1099.32142857 706.6607376 1099.33198571 706.75823589 1099.33304143 706.76796865 1099.33515286 706.78736705 1099.33621489 706.79703716 1099.33685276 706.80275099 1099.33722421 706.80590659 1099.337446 706.80707561 1099.33762125 706.8066713 1099.33776689 706.80501593 1099.33785599 706.80340181 1099.33789913 706.80247233 1099.33792166 706.80195396 1099.3379367 706.80159955 1099.33795719 706.80111316 1099.33796946 706.80082144 1099.33798983 706.80033783 1099.33801091 706.79983727 1099.33805308 706.79883615 1099.33809796 706.79777084 1099.33818771 706.79564022 1099.33836722 706.79137901 1099.33872623 706.78285666 1099.33944426 706.76581231 1099.3408803 706.73172492 1099.34254286 706.69226319 1099.34270911 706.68831716 1099.34304162 706.68042514 1099.34370664 706.6646414 1099.34503669 706.63307504 1099.34769677 706.56994685 1099.35301694 706.4437086 1099.36365728 706.19130456 1099.38493796 705.68678619 1099.42749932 704.67890719 1099.51262204 702.66777146 1099.68286747 698.66391939 1100.02335834 690.72933977 1100.70434009 675.14831329 1101.76005437 651.73429971 1102.81576866 629.19390695 1103.87148294 607.49501199 1104.92719723 586.60667827 1105.98291151 566.49910981 1107.0386258 547.14361176 1108.09434009 528.5125474 1109.15005437 510.57930205 1110.20576866 493.3182427 1111.26148294 476.70468504 1112.31719723 460.71485555 1113.37291151 445.32586142 1114.4286258 430.51565491 1115.48434009 416.26300602 1116.54005437 402.54746881 1117.59576866 389.34935683 1118.65148294 376.64971114 1119.70719723 364.4302783 1120.76291151 352.67348001 1121.8186258 341.36239356 1122.87434009 330.48072278 1123.93005437 320.01278098 1124.65857143 313.02293783 1124.66912857 312.923023 1124.69024286 312.72330978 1124.73247143 312.32434874 1124.81692857 311.52828471 1124.98584286 309.94356144 1125.32367143 306.80351526 1125.33422857 306.70601847 1125.35534286 306.51113866 1125.39757143 306.12183366 1125.48202857 305.34503877 1125.54537143 304.76402788 1125.5876 304.37744051 1125.62982857 303.99145458 1125.64038571 303.89505199 1125.6615 303.70235935 1125.67205714 303.60606929 1125.69317143 303.41360158 1125.70372857 303.3174239 1125.71428571 303.22128366 1125.71534143 303.21167188 1125.71745286 303.19244907 1125.71851279 303.18279984 1125.71914824 303.17704781 1125.7193724 303.17510995 1125.71947031 303.17434812 1125.71953736 303.17390419 1125.71959875 303.17359214 1125.71969897 303.17339844 1125.7198415 303.17424966 1125.71990349 303.17519558 1125.71994922 303.17615378 1125.71999884 303.17730933 1125.72004826 303.1784698 1125.72009596 303.17958727 1125.72015765 303.18103449 1125.72024763 303.18314521 1125.72039101 303.18651025 1125.72066402 303.19292057 1125.72117539 303.20493614 1125.72219814 303.2289833 1125.72279736 303.24307924 1125.72364442 303.26300929 1125.72484286 303.29121272 1125.7249627 303.29403327 1125.72520239 303.29967438 1125.72568177 303.31095647 1125.72664052 303.33352005 1125.72855802 303.37864493 1125.73239303 303.46888547 1125.74006306 303.64932977 1125.7554031 304.01007122 1125.78608318 304.73096599 1125.84744335 306.17040619 1125.97016368 309.03991465 1126.21560436 314.74164682 1126.7064857 325.99757986 1127.68824838 347.93193526 1128.74396267 370.68241867 1129.79967695 392.59718128 1130.85539124 413.7069199 1131.91110552 434.0412041 1132.96681981 453.62851741 1134.0225341 472.49629737 1135.07824838 490.67097375 1136.13396267 508.17800573 1137.18967695 525.04191738 1138.24539124 541.28633215 1139.30110552 556.93400575 1140.35681981 572.00685824 1141.4125341 586.52600447 1142.46824838 600.51178386 1143.52396267 613.98378874 1144.57967695 626.96089185 1145.63539124 639.46127271 1146.69110552 651.50244315 1147.74681981 663.10127174 1148.8025341 674.27400751 1149.85824838 685.03630261 1150.91396267 695.40323431 1151.06198571 696.82586404 1151.35803181 699.64884596 1151.52560781 701.23369448 1151.78254799 703.6455028 1151.79310513 703.74412929 1151.81421942 703.94127159 1151.85644799 704.33511385 1151.94090513 705.12103233 1151.94878571 705.1942453 1151.96454687 705.34060991 1151.99606919 705.63309393 1152.05911383 706.21708258 1152.06967098 706.31474688 1152.09078526 706.50996587 1152.1013424 706.60752058 1152.10714286 706.66110491 1152.1177 706.75860307 1152.11875571 706.76833581 1152.12086714 706.78773418 1152.12192918 706.79740437 1152.12256707 706.80311825 1152.12293852 706.8062738 1152.12316031 706.80744268 1152.12333557 706.80703809 1152.12348119 706.80538274 1152.12357028 706.80376872 1152.12361341 706.80283931 1152.12363595 706.80232097 1152.12365099 706.80196656 1152.12367148 706.80148019 1152.12368375 706.80118848 1152.12370411 706.80070488 1152.1237252 706.80020432 1152.12376737 706.7992032 1152.12381225 706.79813776 1152.12390201 706.7960069 1152.12408154 706.79174518 1152.12444059 706.78322184 1152.1251587 706.76617548 1152.12659492 706.7320841 1152.12825714 706.69263014 1152.12842337 706.68868488 1152.12875581 706.68079442 1152.1294207 706.66501379 1152.13075048 706.63345364 1152.13341004 706.57033788 1152.13872916 706.44412448 1152.1493674 706.19177011 1152.17064388 705.68735096 1152.21319683 704.67966995 1152.29830274 702.66892836 1152.46851456 698.66585737 1152.80893821 690.73281128 1153.48978549 675.15473995 1154.54549978 651.74048664 1155.60121406 629.19986297 1156.65692835 607.50074558 1157.71264263 586.61219762 1158.76835692 566.5044228 1159.8240712 547.14872596 1160.87978549 528.51747012 1161.93549978 510.58404032 1162.99121406 493.3228033 1164.04692835 476.70907449 1165.10264263 460.71908013 1166.15835692 445.32992719 1167.2140712 430.51956769 1168.26978549 416.26677142 1169.32549978 402.55109224 1170.38121406 389.35284349 1171.43692835 376.65306603 1172.49264263 364.43350626 1173.54835692 352.67658568 1174.6040712 341.3653814 1175.65978549 330.48359711 1176.71549978 320.01554594 1177.44428571 313.02308397 1177.45484286 312.92316907 1177.47595714 312.72345574 1177.51818571 312.32449447 1177.60264286 311.52842999 1177.77155714 309.94370582 1178.10938571 306.80365785 1178.11994286 306.70616101 1178.14105714 306.51128109 1178.18328571 306.12197587 1178.26774286 305.34518054 1178.33108571 304.76416932 1178.37331429 304.37758172 1178.41554286 303.99159558 1178.4261 303.89519293 1178.44721429 303.70250018 1178.45777143 303.60621006 1178.47888571 303.41374224 1178.48944286 303.31756451 1178.5 303.22142421 1178.50105571 303.21181243 1178.50316714 303.19258961 1178.50422707 303.18294037 1178.50486253 303.17718834 1178.50508668 303.17525048 1178.5051846 303.17448865 1178.50525164 303.17404472 1178.50531304 303.17373267 1178.50541326 303.17353896 1178.50555579 303.17439018 1178.50561778 303.1753361 1178.50566351 303.1762943 1178.50571313 303.17744984 1178.50576255 303.17861031 1178.50581025 303.17972778 1178.50587194 303.18117498 1178.50596192 303.18328571 1178.50610529 303.18665073 1178.5063783 303.193061 1178.50688967 303.20507655 1178.50791242 303.22912366 1178.50851165 303.24321984 1178.50935868 303.26314929 1178.51055714 303.29135322 1178.51067699 303.29417382 1178.51091668 303.29981503 1178.51139607 303.31109731 1178.51235484 303.33366129 1178.51427238 303.37878695 1178.51810745 303.46902908 1178.52577761 303.64947653 1178.54111792 304.0102243 1178.57179855 304.73113168 1178.63315981 306.170597 1178.75588232 309.04015539 1179.00132734 314.7419861 1179.49221738 325.99811108 1180.47399747 347.93283046 1181.52971176 370.68328098 1182.58542604 392.59801191 1183.64114033 413.70772002 1184.69685461 434.04197483 1185.7525689 453.62925983 1186.80828318 472.49701252 1187.86399747 490.67166262 1188.91971176 508.1786693 1189.97542604 525.04255657 1191.03114033 541.28694786 1192.08685461 556.93459885 1193.1425689 572.00742954 1194.19828318 586.52655478 1195.25399747 600.51231397 1196.30971176 613.98429937 1197.36542604 626.96138372 1198.42114033 639.46174651 1199.47685461 651.50289954 1200.5325689 663.10171137 1201.58828318 674.27443099 1202.64399747 685.03671053 1203.69971176 695.40362725 1203.8477 696.82592132 1204.14367649 699.64824239 1204.31146131 701.23506347 1204.56784465 703.64165625 1204.5784018 703.74028418 1204.59951608 703.93742936 1204.64174465 704.33127736 1204.7262018 705.11720732 1204.7345 705.1943007 1204.75109641 705.34841946 1204.78428923 705.65638512 1204.83702865 706.1449612 1204.84758579 706.24265248 1204.86870008 706.43792541 1204.87925722 706.53550708 1204.8823 706.56362527 1204.88838556 706.61985255 1204.89124317 706.64625123 1204.89695841 706.69904057 1204.90341429 706.75865804 1204.90405987 706.76461385 1204.90535105 706.77650976 1204.9079334 706.80000366 1204.9086184 706.80595266 1204.90894416 706.807111 1204.90914312 706.80571468 1204.90926161 706.8038047 1204.90931636 706.80266525 1204.90934508 706.80201186 1204.90936086 706.80164111 1204.90938531 706.80106105 1204.90939964 706.80072061 1204.9094181 706.80028212 1204.90944034 706.79975418 1204.90948286 706.79874492 1204.90954707 706.79722058 1204.90962586 706.79535017 1204.90978344 706.79160936 1204.91009861 706.78412781 1204.91072894 706.76916498 1204.91198961 706.73924033 1204.91397143 706.6922004 1204.91416961 706.68749661 1204.91456597 706.6780891 1204.9153587 706.65927447 1204.91694415 706.62164684 1204.92011506 706.54639799 1204.92645688 706.39592606 1204.9391405 706.09508514 1204.96450776 705.49381489 1205.01524228 704.29291888 1205.1167113 701.89769007 1205.31964936 697.1333675 1205.72552548 687.7083281 1206.53727771 669.26531671 1207.592992 646.07076378 1208.64870628 623.7417619 1209.70442057 602.24648572 1210.76013485 581.55428559 1211.81584914 561.63564172 1212.87156342 542.4621255 1213.92727771 524.00635649 1214.982992 506.24196708 1216.03870628 489.14356207 1217.09442057 472.68668646 1218.15013485 456.84778741 1219.20584914 441.60418497 1220.26156342 426.93403618 1221.31727771 412.81630863 1222.372992 399.23074648 1223.42870628 386.15784672 1224.48442057 373.57882686 1225.54013485 361.47560384 1226.59584914 349.83076316 1227.65156342 338.62754037 1228.70727771 327.84979142 1229.762992 317.48197668 1230.23 313.02294754 1230.35169828 311.87352281 1230.59509483 309.5900579 1230.79892118 307.69351904 1230.8780616 306.96097581 1231.03634245 305.50228075 1231.04689959 305.40529022 1231.06801388 305.21142234 1231.11024245 304.82413896 1231.19469959 304.05137832 1231.20525673 303.95495241 1231.22637102 303.76221315 1231.24348571 303.60609376 1231.2514849 303.53315942 1231.26748326 303.38735527 1231.27515714 303.31744834 1231.28571429 303.2213081 1231.28677 303.21169632 1231.28888143 303.19247351 1231.28994136 303.18282432 1231.29057681 303.17707232 1231.29080096 303.17513446 1231.29089887 303.17437262 1231.29096592 303.17392868 1231.29102731 303.17361661 1231.29112752 303.17342284 1231.29127004 303.17427371 1231.29133204 303.17521957 1231.29137778 303.1761778 1231.29142737 303.17733277 1231.29147678 303.17849288 1231.29152449 303.17961063 1231.29158612 303.1810565 1231.2916761 303.18316715 1231.2918194 303.18653039 1231.29209228 303.19293758 1231.29260356 303.20495108 1231.29362613 303.22899408 1231.29422629 303.24311194 1231.29507112 303.26298982 1231.29627143 303.29123711 1231.29639146 303.29406205 1231.29663152 303.29971194 1231.29711164 303.31101156 1231.29807189 303.33361024 1231.29999237 303.37880529 1231.30383335 303.46918615 1231.3115153 303.64991097 1231.3268792 304.011213 1231.357607 304.73322712 1231.4190626 306.17489868 1231.5419738 309.0488408 1231.7877962 314.75932484 1232.279441 326.03230736 1233.2627306 347.99900281 1234.31844488 370.74702254 1235.37415917 392.65941198 1236.42987345 413.76686459 1237.48558774 434.09894676 1238.54130202 453.68413891 1239.59701631 472.54987563 1240.6527306 490.72258382 1241.70844488 508.22771991 1242.76415917 525.08980531 1243.81987345 541.33246091 1244.87558774 556.97843996 1245.93130202 572.04966014 1246.98701631 586.56723403 1248.0427306 600.55149884 1249.09844488 614.02204476 1250.15415917 626.99774252 1251.20987345 639.49676964 1252.26558774 651.53663607 1253.32130202 663.13420856 1254.37701631 674.30573437 1255.4327306 685.06686395 1256.48844488 695.43267295 1256.63341429 696.82587885 1256.92335309 699.59092164 1257.10925095 701.34886033 1257.31733285 703.30289177 1257.32789 703.40164645 1257.34900428 703.59904499 1257.39123285 703.99339916 1257.47569 704.78033917 1257.52021429 705.19425215 1257.60007999 705.9350764 1257.61063714 706.03284621 1257.63175142 706.22827611 1257.6469 706.36839844 1257.65883141 706.47870947 1257.66526574 706.53817823 1257.67625991 706.63975958 1257.67857143 706.66111193 1257.68319446 706.70381139 1257.68912857 706.75861009 1257.68972198 706.76408499 1257.69090881 706.77502216 1257.69328245 706.79670719 1257.69395867 706.80277541 1257.69442308 706.80602239 1257.69467623 706.80615304 1257.69488295 706.80410517 1257.69496772 706.80257735 1257.69501375 706.80159226 1257.69503705 706.80105747 1257.69505213 706.80070226 1257.69507333 706.80019903 1257.69508575 706.79990377 1257.69510702 706.79939842 1257.69512727 706.79891787 1257.69516775 706.79795675 1257.69520811 706.79699868 1257.69528883 706.79508255 1257.69545026 706.79125031 1257.69577313 706.78358589 1257.69641888 706.76825733 1257.69771036 706.73760127 1257.69968571 706.69071484 1257.69988325 706.68602639 1257.70027832 706.67664957 1257.70106846 706.65789634 1257.70264875 706.62039146 1257.70580932 706.54538809 1257.71213045 706.39540695 1257.72477273 706.09554694 1257.75005727 705.49623583 1257.80062637 704.29924741 1257.90176455 701.91179113 1258.10404093 697.16284417 1258.50859368 687.76788726 1259.31769917 669.38243691 1260.37341346 646.18351463 1261.42912774 623.85030404 1262.48484203 602.3509739 1263.54055632 581.65486882 1264.5962706 561.73246354 1265.65198489 542.55532412 1266.70769917 524.09606505 1267.76341346 506.32831376 1268.81912774 489.22667036 1269.87484203 472.76667525 1270.93055632 456.92477122 1271.9862706 441.67827405 1273.04198489 427.00533675 1274.09769917 412.88492293 1275.15341346 399.296773 1276.20912774 386.22138027 1277.26484203 373.63995877 1278.32055632 361.534422 1279.3762706 349.88735225 1280.43198489 338.68198186 1281.48769917 327.90216383 1282.54341346 317.53235552 1283.01571429 313.02235757 1283.12682692 311.97271123 1283.34905218 309.88625024 1283.62697805 307.30073423 1283.63753519 307.20304403 1283.65864948 307.00777761 1283.70087805 306.61770025 1283.78533519 305.83936408 1283.90251429 304.76347512 1283.91307143 304.66677207 1283.93418571 304.47347886 1283.97641429 304.08734351 1283.98697143 303.9909036 1284.00808571 303.79813636 1284.0292 303.60551915 1284.03975714 303.50926678 1284.05031429 303.41305187 1284.06087143 303.31687441 1284.07142857 303.22073439 1284.07248429 303.21112263 1284.07459571 303.19189987 1284.07565564 303.1822507 1284.07629109 303.1764987 1284.07651525 303.17456085 1284.07661316 303.17379902 1284.0766802 303.17335508 1284.0767416 303.17304301 1284.07684181 303.17284925 1284.07698433 303.17370015 1284.07704633 303.17464602 1284.07709207 303.17560424 1284.07714166 303.17675925 1284.07719107 303.17791939 1284.07723878 303.17903712 1284.07730041 303.18048309 1284.07739039 303.18259375 1284.0775337 303.18595712 1284.07780658 303.19236454 1284.07831788 303.20437819 1284.07934046 303.2284215 1284.07994055 303.24253783 1284.08078554 303.26241942 1284.08198571 303.29066363 1284.08210573 303.29348827 1284.08234577 303.29913753 1284.08282584 303.31043593 1284.08378597 303.33303215 1284.08570625 303.37822227 1284.0895468 303.4685933 1284.09722791 303.64929845 1284.11259013 304.01056118 1284.14331455 304.73249682 1284.20476341 306.17401195 1284.32766112 309.04764324 1284.57345655 314.75751376 1285.0650474 326.02930122 1286.04822909 347.99373044 1287.10394338 370.74194385 1288.15965767 392.65451985 1289.21537195 413.76215217 1290.27108624 434.09440744 1291.32680052 453.67976635 1292.38251481 472.54566369 1293.43822909 490.7185266 1294.49394338 508.22381174 1295.54965767 525.0860407 1296.60537195 541.32883459 1297.66108624 556.97494686 1298.71680052 572.04629536 1299.77251481 586.56399285 1300.82822909 600.54837673 1301.88394338 614.01903735 1302.93965767 626.99484558 1303.99537195 639.49397912 1305.05108624 651.53394807 1306.10680052 663.1316193 1307.16251481 674.30324023 1308.21822909 685.06446144 1309.27394338 695.4303587 1309.41912857 696.82564493 1309.70949895 699.59478481 1309.89410209 701.34049474 1310.10563658 703.3268897 1310.11619372 703.42563541 1310.13730801 703.623016 1310.17953658 704.01733431 1310.26399372 704.80420276 1310.30592857 705.19402588 1310.38979827 705.97193623 1310.40035542 706.06969225 1310.4214697 706.26509458 1310.43261429 706.36817326 1310.45255369 706.55249559 1310.46311083 706.65003439 1310.46428571 706.66088701 1310.46663548 706.68259089 1310.47014333 706.7149883 1310.47484286 706.75838525 1310.47531281 706.76272189 1310.47625271 706.77138809 1310.47813252 706.78864588 1310.47907813 706.79725208 1310.47964595 706.80234783 1310.47997632 706.80523561 1310.48017098 706.8066696 1310.48031856 706.8071869 1310.48051184 706.80633168 1310.48059722 706.8052858 1310.48068993 706.80367837 1310.48073442 706.80274517 1310.48075979 706.80217173 1310.48077438 706.80183046 1310.48078849 706.80149604 1310.48080372 706.80113422 1310.48081655 706.80082964 1310.48083105 706.80048546 1310.48086005 706.79979711 1310.48091701 706.79844488 1310.48103094 706.79574043 1310.48125879 706.79033157 1310.48171449 706.77951398 1310.4826259 706.75787933 1310.48357719 706.73529867 1310.4854 706.69203298 1310.48558228 706.68770658 1310.48594684 706.67905384 1310.48667597 706.66174869 1310.48813422 706.62713977 1310.49105072 706.55792738 1310.49688372 706.41952437 1310.50854972 706.14280544 1310.53188172 705.58971582 1310.57854572 704.48492803 1310.67187372 702.28090674 1310.85852973 697.89498966 1311.23184174 689.21092947 1311.97846575 672.18816662 1313.03418004 648.88457546 1314.08989433 626.45054453 1315.14560861 604.85410106 1316.2013229 584.06445234 1317.25703718 564.0519419 1318.31275147 544.78800826 1319.36846575 526.24514427 1320.42418004 508.39685892 1321.47989433 491.21763952 1322.53560861 474.68291644 1323.5913229 458.76902792 1324.64703718 443.4531875 1325.70275147 428.71345126 1326.75846575 414.52868778 1327.81418004 400.87854766 1328.86989433 387.74343581 1329.92560861 375.10448305 1330.9813229 362.94352063 1332.03703718 351.24305376 1333.09275147 339.98623819 1334.14846575 329.15685551 1335.20418004 318.73929175 1335.80142857 313.02290582 1335.81198571 312.922991 1335.8331 312.72327781 1335.87532857 312.32431681 1335.95978571 311.52825288 1336.1287 309.94352981 1336.46652857 306.80348406 1336.47708571 306.70598728 1336.4982 306.5111075 1336.54042857 306.12180255 1336.62488571 305.34500776 1336.68822857 304.76399694 1336.73045714 304.37740961 1336.77268571 303.99142374 1336.78324286 303.89502116 1336.80435714 303.70232854 1336.81491429 303.60603849 1336.83602857 303.41357079 1336.84658571 303.31739313 1336.85714286 303.22125291" stroke="#EAA228" stroke-width="1" fill="none" id="gge104" class="px1"/></g></svg>